<svg xmlns="http://www.w3.org/2000/svg" width="256" height="256" viewBox="0 0 100 100"><rect width="100" height="100" rx="20" fill="#1e73ed"></rect><path fill="#fff" d="M27.67 42.45L27.67 42.45Q27.67 44.60 26.65 46.42Q25.62 48.25 23.22 49.25L23.22 49.25Q26.07 50.20 27.47 52.23Q28.87 54.25 28.87 56.80L28.87 56.80Q28.87 61.35 25.60 63.55Q22.32 65.75 16.27 65.75L16.27 65.75Q14.17 65.75 12.20 65.58Q10.22 65.40 8.42 64.90L8.42 64.90Q6.32 64.30 6.32 62.60L6.32 62.60L6.32 37Q6.32 35.55 7.97 35.10L7.97 35.10Q9.67 34.60 11.57 34.42Q13.47 34.25 15.72 34.25L15.72 34.25Q21.37 34.25 24.52 36.25Q27.67 38.25 27.67 42.45ZM17.12 51.05L10.32 51.05L10.32 61.85Q11.52 62.10 13.10 62.25Q14.67 62.40 16.27 62.40L16.27 62.40Q20.42 62.40 22.57 61.03Q24.72 59.65 24.72 56.70L24.72 56.70Q24.72 54.10 22.80 52.58Q20.87 51.05 17.12 51.05L17.12 51.05ZM10.32 38.05L10.32 47.75L17.12 47.75Q20.27 47.75 21.90 46.35Q23.52 44.95 23.52 42.55L23.52 42.55Q23.52 37.60 15.72 37.60L15.72 37.60Q13.97 37.60 12.70 37.73Q11.42 37.85 10.32 38.05L10.32 38.05ZM38.48 65.20L38.48 65.20Q37.48 65.20 36.88 64.60Q36.27 64 36.27 63L36.27 63L36.27 37Q36.27 36 36.88 35.40Q37.48 34.80 38.48 34.80L38.48 34.80L55.08 34.80Q55.23 35.05 55.38 35.48Q55.53 35.90 55.53 36.40L55.53 36.40Q55.53 37.25 55.13 37.75Q54.73 38.25 53.98 38.25L53.98 38.25L40.33 38.25L40.33 47.90L53.53 47.90Q53.67 48.15 53.83 48.58Q53.98 49 53.98 49.50L53.98 49.50Q53.98 50.35 53.58 50.83Q53.17 51.30 52.42 51.30L52.42 51.30L40.33 51.30L40.33 61.80L55.33 61.80Q55.48 62.05 55.63 62.45Q55.78 62.85 55.78 63.40L55.78 63.40Q55.78 64.25 55.38 64.73Q54.98 65.20 54.23 65.20L54.23 65.20L38.48 65.20ZM80.13 57.30L80.13 57.30Q79.78 57.55 79.20 57.75Q78.63 57.95 77.92 57.95L77.92 57.95Q77.13 57.95 76.50 57.70Q75.88 57.45 75.63 56.90L75.63 56.90Q72.92 51.30 70.97 46.65Q69.03 42 67.83 38.95L67.83 38.95L67.63 38.95Q67.47 42.70 67.30 45.92Q67.13 49.15 66.92 52.23Q66.72 55.30 66.53 58.45Q66.33 61.60 66.13 65.20L66.13 65.20Q65.83 65.30 65.35 65.40Q64.88 65.50 64.33 65.50L64.33 65.50Q63.23 65.50 62.77 65.05Q62.33 64.60 62.33 63.75L62.33 63.75Q62.33 63.25 62.40 61.60Q62.48 59.95 62.63 57.60Q62.77 55.25 62.95 52.40Q63.13 49.55 63.35 46.60Q63.58 43.65 63.80 40.80Q64.03 37.95 64.22 35.60L64.22 35.60Q64.63 35.25 65.38 34.95Q66.13 34.65 67.08 34.65L67.08 34.65Q69.38 34.65 70.28 36.50L70.28 36.50Q71.22 38.45 72.20 40.63Q73.17 42.80 74.15 45.05Q75.13 47.30 76.05 49.50Q76.97 51.70 77.83 53.70L77.83 53.70L78.03 53.70Q79.13 51.05 80.22 48.48Q81.33 45.90 82.38 43.50Q83.42 41.10 84.38 39Q85.33 36.90 86.08 35.15L86.08 35.15Q86.53 34.90 87.22 34.78Q87.92 34.65 88.53 34.65L88.53 34.65Q90.88 34.65 91.22 36.25L91.22 36.25Q91.43 37.15 91.68 39.23Q91.93 41.30 92.18 44Q92.43 46.70 92.65 49.80Q92.88 52.90 93.08 55.78Q93.28 58.65 93.43 61.08Q93.58 63.50 93.68 64.90L93.68 64.90Q92.78 65.50 91.58 65.50L91.58 65.50Q90.83 65.50 90.25 65.13Q89.67 64.75 89.58 63.75L89.58 63.75Q89.33 60.10 89.13 56.50Q88.92 52.90 88.75 49.65Q88.58 46.40 88.42 43.67Q88.28 40.95 88.17 39.05L88.17 39.05L87.97 39.05Q87.42 40.45 86.70 42.20Q85.97 43.95 85 46.15Q84.03 48.35 82.83 51.13Q81.63 53.90 80.13 57.30Z"></path></svg>